<svg id="visual" viewBox="0 0 900 300" width="900" height="300" xmlns="http://www.w3.org/2000/svg" xmlns:xlink="http://www.w3.org/1999/xlink" version="1.1"><rect x="0" y="0" width="900" height="300" fill="#001220"></rect><path d="M0 175L30 178.8C60 182.7 120 190.3 180 194C240 197.7 300 197.3 360 201C420 204.7 480 212.3 540 201.7C600 191 660 162 720 155.2C780 148.3 840 163.7 870 171.3L900 179L900 0L870 0C840 0 780 0 720 0C660 0 600 0 540 0C480 0 420 0 360 0C300 0 240 0 180 0C120 0 60 0 30 0L0 0Z" fill="#fa7268"></path><path d="M0 104L30 113C60 122 120 140 180 138.7C240 137.3 300 116.7 360 115.8C420 115 480 134 540 138.5C600 143 660 133 720 127.3C780 121.7 840 120.3 870 119.7L900 119L900 0L870 0C840 0 780 0 720 0C660 0 600 0 540 0C480 0 420 0 360 0C300 0 240 0 180 0C120 0 60 0 30 0L0 0Z" fill="#eb5967"></path><path d="M0 123L30 118C60 113 120 103 180 103C240 103 300 113 360 114.5C420 116 480 109 540 100.2C600 91.3 660 80.7 720 81.5C780 82.3 840 94.7 870 100.8L900 107L900 0L870 0C840 0 780 0 720 0C660 0 600 0 540 0C480 0 420 0 360 0C300 0 240 0 180 0C120 0 60 0 30 0L0 0Z" fill="#da3f67"></path><path d="M0 48L30 44.8C60 41.7 120 35.3 180 40.2C240 45 300 61 360 69.2C420 77.3 480 77.7 540 72C600 66.3 660 54.7 720 51.2C780 47.7 840 52.3 870 54.7L900 57L900 0L870 0C840 0 780 0 720 0C660 0 600 0 540 0C480 0 420 0 360 0C300 0 240 0 180 0C120 0 60 0 30 0L0 0Z" fill="#c62368"></path></svg>