<svg id="visual" viewBox="0 0 900 100" width="900" height="100" xmlns="http://www.w3.org/2000/svg" xmlns:xlink="http://www.w3.org/1999/xlink" version="1.1"><rect x="0" y="0" width="900" height="100" fill="#001220"></rect><path d="M0 35L21.5 39.2C43 43.3 86 51.7 128.8 50.2C171.7 48.7 214.3 37.3 257.2 39.5C300 41.7 343 57.3 385.8 61.8C428.7 66.3 471.3 59.7 514.2 53C557 46.3 600 39.7 642.8 42.8C685.7 46 728.3 59 771.2 65.8C814 72.7 857 73.3 878.5 73.7L900 74L900 0L878.5 0C857 0 814 0 771.2 0C728.3 0 685.7 0 642.8 0C600 0 557 0 514.2 0C471.3 0 428.7 0 385.8 0C343 0 300 0 257.2 0C214.3 0 171.7 0 128.8 0C86 0 43 0 21.5 0L0 0Z" fill="#fa7268" stroke-linecap="round" stroke-linejoin="miter"></path></svg>